<svg id="svg" xmlns="http://www.w3.org/2000/svg" xmlns:xlink="http://www.w3.org/1999/xlink" width="400" height="206.66666666666666" viewBox="0, 0, 400,206.66666666666666"><g id="svgg"><path id="path0" d="M186.905 20.528 C 155.249 23.479,127.964 36.802,116.377 54.967 C 115.096 56.975,113.810 58.965,113.520 59.389 C 112.925 60.257,107.869 56.789,106.349 54.470 C 105.451 53.098,105.371 53.191,108.095 52.431 C 124.110 47.960,122.898 23.502,106.667 23.591 C 96.495 23.647,90.714 29.451,90.714 39.609 C 90.714 44.529,90.673 44.738,89.762 44.464 C 86.956 43.619,84.392 41.288,83.020 38.333 C 81.221 34.460,78.190 36.900,78.879 41.667 C 79.747 47.673,84.656 52.358,91.775 53.975 L 94.481 54.589 97.760 60.033 C 101.171 65.695,103.152 68.406,106.304 71.721 C 108.091 73.601,108.147 73.755,107.678 75.531 C 103.022 93.173,109.239 146.902,118.803 171.667 C 124.227 185.713,125.398 187.143,131.476 187.143 C 136.446 187.143,136.439 187.150,136.900 181.890 C 137.665 173.153,140.523 164.366,146.110 153.571 C 150.426 145.233,149.125 145.773,158.810 148.300 C 174.298 152.342,195.136 153.994,216.429 152.869 L 220.714 152.642 222.200 156.916 C 225.460 166.291,232.903 181.952,235.682 185.280 C 237.005 186.865,237.137 186.908,241.149 187.073 C 246.988 187.312,246.858 187.503,246.460 179.298 C 245.987 169.576,246.084 155.916,246.648 152.619 C 246.917 151.048,247.139 149.736,247.140 149.704 C 247.142 149.673,251.911 149.532,257.738 149.393 C 283.074 148.786,312.083 139.984,316.158 131.667 C 317.200 129.539,320.952 115.012,320.952 113.105 C 320.952 111.468,319.481 110.952,314.816 110.952 C 305.967 110.952,303.003 108.186,299.994 97.119 C 297.926 89.514,296.317 86.732,292.528 84.215 C 291.550 83.565,291.758 83.471,295.862 82.704 C 307.748 80.483,315.993 72.859,318.861 61.434 C 319.765 57.835,319.563 46.260,318.544 43.236 L 317.949 41.473 316.670 43.474 C 312.540 49.939,305.330 54.304,293.621 57.428 C 281.851 60.568,275.309 66.014,271.715 75.666 C 271.071 77.395,270.382 79.238,270.183 79.762 C 269.705 81.021,269.166 76.485,269.108 70.714 C 269.030 63.105,270.713 57.784,274.405 53.959 L 276.329 51.966 274.803 49.589 C 262.935 31.093,221.286 17.324,186.905 20.528 M109.661 34.640 C 112.227 39.047,105.710 46.030,100.793 44.144 C 99.946 43.819,99.268 39.391,99.738 37.252 C 100.652 33.088,107.681 31.238,109.661 34.640 M291.667 103.388 C 295.313 106.942,291.809 113.579,286.815 112.576 C 283.113 111.833,281.126 107.287,283.186 104.273 C 285.314 101.158,288.986 100.775,291.667 103.388 M152.857 154.947 C 152.857 159.915,159.263 172.266,166.502 181.257 C 170.688 186.455,171.900 187.143,176.873 187.143 C 181.401 187.143,181.374 187.198,180.311 180.025 C 179.863 176.999,179.247 171.151,178.944 167.029 L 178.392 159.533 176.934 159.316 C 176.132 159.196,173.762 158.982,171.667 158.840 C 167.300 158.543,160.574 157.172,156.473 155.742 C 153.688 154.772,152.857 154.589,152.857 154.947 M273.810 156.761 C 271.431 157.650,266.793 158.533,261.667 159.072 C 258.786 159.375,256.380 159.668,256.320 159.722 C 256.045 159.971,259.663 170.291,261.675 175.000 C 266.761 186.901,266.969 187.143,272.156 187.143 C 277.972 187.143,278.080 186.924,276.668 177.995 C 276.080 174.280,275.464 167.882,275.300 163.778 L 275.000 156.317 273.810 156.761 " stroke="none" fill="#000000" fill-rule="evenodd"></path></g></svg>